<mxfile host="app.diagrams.net" modified="2023-11-26T01:21:30.979Z" agent="Mozilla/5.0 (X11; Linux x86_64; rv:120.0) Gecko/20100101 Firefox/120.0" version="21.5.2" etag="sLRSK5UJWu-8M63NkKam" type="github">
  <diagram name="Page-1" id="w9cnzOdEk9IM8vQtvfKo">
    <mxGraphModel>
      <root>
        <mxCell id="0" />
        <mxCell id="1" parent="0" />
      </root>
    </mxGraphModel>
  </diagram>
</mxfile>
